<svg width="24" height="24" viewBox="0 0 24 24" fill="none" xmlns="http://www.w3.org/2000/svg"><path d="M12 24c6.627 0 12-5.373 12-12S18.627 0 12 0 0 5.373 0 12s5.373 12 12 12Z" fill="#2A86F3"/><path d="m18.347 8.45-.706.564c.409.78.97 1.454.97 3.635-.485 4.063-3.469 6.3-6.543 6.3v-1.696L9.402 19.19l2.666 2.181v-1.535a7.43 7.43 0 0 0 7.431-7.43 7.367 7.367 0 0 0-1.152-3.958ZM6.26 16.785l.679-.597c-.445-.76-1.037-1.407-1.14-3.585C5.697 8.726 8.966 6.146 12.037 6l.08 1.694 2.571-2.062-2.765-2.053.072 1.533a7.43 7.43 0 0 0-7.072 7.774 7.367 7.367 0 0 0 1.337 3.898Z" fill="#fff" stroke="#fff" stroke-width=".431"/><path d="M13.346 10.113c.125.201.21.449.256.744h.658v.804h-.623c-.032.483-.155.882-.367 1.197-.207.315-.482.52-.824.613.139.047.263.13.374.252.11.12.215.291.312.512l1.031 2.232h-1.066l-1.038-2.282c-.093-.215-.192-.365-.298-.453a.578.578 0 0 0-.409-.14h-.997v-1.016h1.475c.268 0 .48-.077.637-.231.157-.154.254-.382.29-.684h-2.402v-.804h2.375c-.05-.248-.152-.432-.305-.553-.152-.127-.35-.191-.595-.191h-1.475v-.804h3.905v.804h-.914Z" fill="#fff"/></svg>
